<svg width="613" height="613" version="1.1" xmlns="http://www.w3.org/2000/svg" desc="Created with imagetracer.js version 1.2.6" ><path fill="rgb(0,0,0)" stroke="rgb(0,0,0)" stroke-width="1" opacity="0" d="M 0 0 L 613 0 L 613 613 L 0 613 L 0 0 Z M 162 115 L 162 368 Q 166 384 176 395 Q 190 413 216 421 L 293 421 L 293 329 L 246 265 L 245 370 L 226 370 L 218 366 L 210 353 L 211 186 L 378 420 L 380 421 L 449 421 L 449 256 L 377 256 L 377 301 L 400 301 L 400 355 L 231 117 L 230 115 L 162 115 Z M 312 115 L 312 206 L 360 272 L 360 168 L 363 167 L 376 168 L 388 173 L 396 183 L 400 196 L 400 211 L 401 211 L 449 211 L 449 180 Q 447 178 448 173 Q 444 159 436 150 Q 419 128 390 118 L 373 115 L 312 115 Z M 227 458 L 220 461 Q 214 465 212 473 Q 210 485 215 491 Q 219 496 226 498 Q 237 500 242 495 L 245 491 L 246 491 L 246 497 L 243 505 L 234 510 Q 221 511 217 504 L 214 508 Q 218 513 226 514 L 235 514 L 244 510 Q 249 506 250 499 L 250 460 L 246 459 L 246 466 L 245 465 Q 240 457 227 458 Z M 273 458 L 268 460 L 265 462 L 265 459 L 260 459 L 260 497 L 265 497 L 265 471 L 266 468 L 274 462 L 279 463 Q 282 464 280 460 Q 278 457 273 458 Z M 346 458 L 338 462 L 335 464 L 335 459 L 330 459 L 330 513 L 334 513 L 335 491 L 345 498 Q 356 500 361 495 Q 366 491 368 484 Q 370 470 364 465 Q 359 457 346 458 Z M 389 458 L 380 462 L 373 473 Q 371 485 376 491 Q 380 496 388 498 Q 399 500 404 495 Q 409 491 411 485 Q 413 471 407 465 Q 402 457 389 458 Z M 286 459 L 286 488 L 288 493 Q 291 497 297 498 Q 306 499 311 496 L 315 493 Q 313 499 319 497 L 319 460 L 315 459 L 315 482 L 313 488 L 305 494 L 296 493 Q 291 490 290 485 L 290 460 L 286 459 Z " /><path fill="rgb(0,0,0)" stroke="rgb(0,0,0)" stroke-width="1" opacity="0" d="M 228.5 462 Q 239.4 461.6 243 468.5 L 246 475.5 L 246 480.5 Q 244.6 488.6 238.5 492 Q 234.8 495.3 226.5 494 L 220 489.5 Q 215.5 485 216 475.5 Q 217.4 467.4 223.5 464 L 228.5 462 Z " /><path fill="rgb(0,0,0)" stroke="rgb(0,0,0)" stroke-width="1" opacity="0" d="M 346.5 462 Q 358.3 461.7 362 469.5 L 364 475.5 L 364 481.5 L 358.5 491 Q 355 495.5 345.5 494 L 337 487.5 L 334 480.5 L 334 475.5 Q 335.5 468.6 340.5 465 L 346.5 462 Z " /><path fill="rgb(0,0,0)" stroke="rgb(0,0,0)" stroke-width="1" opacity="0" d="M 389.5 462 Q 401.3 461.7 405 469.5 Q 408 473.5 407 481.5 L 401.5 491 Q 397.7 495.2 388.5 494 L 379 486.5 Q 376 482.5 377 474.5 Q 378.8 467.3 384.5 464 L 389.5 462 Z " /><path fill="rgb(255,255,255)" stroke="rgb(255,255,255)" stroke-width="1" opacity="0.4666666666666667" d="M 162 115 L 229.5 115 L 231 116.5 L 233 119.5 L 230 117.5 L 229.5 116 L 163 116 L 162.5 368 L 162 115 Z " /><path fill="rgb(255,255,255)" stroke="rgb(255,255,255)" stroke-width="1" opacity="0.4666666666666667" d="M 312.5 115 L 373 115.5 L 312.5 116 L 312.5 115 Z " /><path fill="rgb(255,255,255)" stroke="rgb(255,255,255)" stroke-width="1" opacity="0.4666666666666667" d="M 378.5 116 L 382 116.5 L 378.5 117 L 378.5 116 Z " /><path fill="rgb(255,255,255)" stroke="rgb(255,255,255)" stroke-width="1" opacity="0.4666666666666667" d="M 383.5 117 L 386 117.5 L 383.5 118 L 383.5 117 Z " /><path fill="rgb(255,255,255)" stroke="rgb(255,255,255)" stroke-width="1" opacity="0.4666666666666667" d="M 387.5 118 L 390 118.5 L 387.5 119 L 387.5 118 Z " /><path fill="rgb(255,255,255)" stroke="rgb(255,255,255)" stroke-width="1" opacity="0.4666666666666667" d="M 233.5 121 L 234.5 123 L 233.5 121 Z " /><path fill="rgb(255,255,255)" stroke="rgb(255,255,255)" stroke-width="1" opacity="0.4666666666666667" d="M 235.5 124 L 240 129.5 L 237 127.5 L 235.5 124 Z " /><path fill="rgb(255,255,255)" stroke="rgb(255,255,255)" stroke-width="1" opacity="0.4666666666666667" d="M 407.5 126 L 411 128.5 L 409.5 128 L 407.5 126 Z " /><path fill="rgb(255,255,255)" stroke="rgb(255,255,255)" stroke-width="1" opacity="0.4666666666666667" d="M 412.5 129 L 417 132.5 L 414.5 131 L 412.5 129 Z " /><path fill="rgb(255,255,255)" stroke="rgb(255,255,255)" stroke-width="1" opacity="0.4666666666666667" d="M 240.5 131 L 245 136.5 L 242 134.5 L 240.5 131 Z " /><path fill="rgb(255,255,255)" stroke="rgb(255,255,255)" stroke-width="1" opacity="0.4666666666666667" d="M 418.5 133 L 420.5 136 L 418.5 133 Z " /><path fill="rgb(255,255,255)" stroke="rgb(255,255,255)" stroke-width="1" opacity="0.4666666666666667" d="M 422.5 136 L 435.5 150 L 422.5 136 Z " /><path fill="rgb(255,255,255)" stroke="rgb(255,255,255)" stroke-width="1" opacity="0.4666666666666667" d="M 245.5 138 L 252 146.5 L 249 144.5 L 245.5 138 Z " /><path fill="rgb(255,255,255)" stroke="rgb(255,255,255)" stroke-width="1" opacity="0.4666666666666667" d="M 252.5 148 L 257 153.5 L 254 151.5 L 252.5 148 Z " /><path fill="rgb(255,255,255)" stroke="rgb(255,255,255)" stroke-width="1" opacity="0.4666666666666667" d="M 436.5 151 L 442 158.5 L 440 157.5 L 436.5 151 Z " /><path fill="rgb(255,255,255)" stroke="rgb(255,255,255)" stroke-width="1" opacity="0.4666666666666667" d="M 257.5 155 L 262 160.5 L 259 158.5 L 257.5 155 Z " /><path fill="rgb(255,255,255)" stroke="rgb(255,255,255)" stroke-width="1" opacity="0.4666666666666667" d="M 262.5 162 L 263.5 164 L 262.5 162 Z " /><path fill="rgb(255,255,255)" stroke="rgb(255,255,255)" stroke-width="1" opacity="0.4666666666666667" d="M 264.5 165 L 269 170.5 L 266 168.5 L 264.5 165 Z " /><path fill="rgb(255,255,255)" stroke="rgb(255,255,255)" stroke-width="1" opacity="0.4666666666666667" d="M 360.5 167 L 362 167.5 L 360 168 L 359.5 272 L 355 266.5 L 358 268.5 L 358.5 270 L 359 168.5 L 360.5 167 Z " /><path fill="rgb(255,255,255)" stroke="rgb(255,255,255)" stroke-width="1" opacity="0.4666666666666667" d="M 366.5 167 L 374 167.5 L 366.5 168 L 366.5 167 Z " /><path fill="rgb(255,255,255)" stroke="rgb(255,255,255)" stroke-width="1" opacity="0.4666666666666667" d="M 376.5 168 L 379 168.5 L 376.5 169 L 376.5 168 Z " /><path fill="rgb(255,255,255)" stroke="rgb(255,255,255)" stroke-width="1" opacity="0.4666666666666667" d="M 385.5 171 L 394 178.5 L 387.5 173 L 385.5 171 Z " /><path fill="rgb(255,255,255)" stroke="rgb(255,255,255)" stroke-width="1" opacity="0.4666666666666667" d="M 269.5 172 L 274 177.5 L 271 175.5 L 269.5 172 Z " /><path fill="rgb(255,255,255)" stroke="rgb(255,255,255)" stroke-width="1" opacity="0.4666666666666667" d="M 447.5 172 L 448 175.5 L 447 175.5 L 447.5 172 Z " /><path fill="rgb(255,255,255)" stroke="rgb(255,255,255)" stroke-width="1" opacity="0.4666666666666667" d="M 274.5 179 L 279 184.5 L 276 182.5 L 274.5 179 Z " /><path fill="rgb(255,255,255)" stroke="rgb(255,255,255)" stroke-width="1" opacity="0.4666666666666667" d="M 448.5 179 L 449 211 L 400.5 211 L 400 210.5 L 400 198.5 L 401 198.5 L 401 209.5 L 401.5 210 L 448 210 L 448.5 179 Z " /><path fill="rgb(255,255,255)" stroke="rgb(255,255,255)" stroke-width="1" opacity="0.4666666666666667" d="M 394.5 180 L 395.5 182 L 394.5 180 Z " /><path fill="rgb(255,255,255)" stroke="rgb(255,255,255)" stroke-width="1" opacity="0.4666666666666667" d="M 210.5 185 L 214 189.5 L 211 187.5 L 210.5 185 Z " /><path fill="rgb(255,255,255)" stroke="rgb(255,255,255)" stroke-width="1" opacity="0.4666666666666667" d="M 397.5 185 L 399 189.5 L 398 189.5 L 397.5 185 Z " /><path fill="rgb(255,255,255)" stroke="rgb(255,255,255)" stroke-width="1" opacity="0.4666666666666667" d="M 279.5 186 L 280.5 188 L 279.5 186 Z " /><path fill="rgb(255,255,255)" stroke="rgb(255,255,255)" stroke-width="1" opacity="0.4666666666666667" d="M 281.5 189 L 286 194.5 L 283 192.5 L 281.5 189 Z " /><path fill="rgb(255,255,255)" stroke="rgb(255,255,255)" stroke-width="1" opacity="0.4666666666666667" d="M 214.5 191 L 219 196.5 L 216 194.5 L 214.5 191 Z " /><path fill="rgb(255,255,255)" stroke="rgb(255,255,255)" stroke-width="1" opacity="0.4666666666666667" d="M 399.5 191 L 400 194.5 L 399 194.5 L 399.5 191 Z " /><path fill="rgb(255,255,255)" stroke="rgb(255,255,255)" stroke-width="1" opacity="0.4666666666666667" d="M 286.5 196 L 291 201.5 L 288 199.5 L 286.5 196 Z " /><path fill="rgb(255,255,255)" stroke="rgb(255,255,255)" stroke-width="1" opacity="0.4666666666666667" d="M 219.5 198 L 224 203.5 L 221 201.5 L 219.5 198 Z " /><path fill="rgb(255,255,255)" stroke="rgb(255,255,255)" stroke-width="1" opacity="0.4666666666666667" d="M 291.5 203 L 298 211.5 L 295 209.5 L 291.5 203 Z " /><path fill="rgb(255,255,255)" stroke="rgb(255,255,255)" stroke-width="1" opacity="0.4666666666666667" d="M 224.5 205 L 232 214.5 L 229 212.5 L 224.5 205 Z " /><path fill="rgb(255,255,255)" stroke="rgb(255,255,255)" stroke-width="1" opacity="0.4666666666666667" d="M 312.5 205 L 317 210.5 L 314 208.5 L 312.5 205 Z " /><path fill="rgb(255,255,255)" stroke="rgb(255,255,255)" stroke-width="1" opacity="0.4666666666666667" d="M 317.5 212 L 318.5 214 L 317.5 212 Z " /><path fill="rgb(255,255,255)" stroke="rgb(255,255,255)" stroke-width="1" opacity="0.4666666666666667" d="M 298.5 213 L 303 218.5 L 300 216.5 L 298.5 213 Z " /><path fill="rgb(255,255,255)" stroke="rgb(255,255,255)" stroke-width="1" opacity="0.4666666666666667" d="M 319.5 215 L 324 220.5 L 321 218.5 L 319.5 215 Z " /><path fill="rgb(255,255,255)" stroke="rgb(255,255,255)" stroke-width="1" opacity="0.4666666666666667" d="M 232.5 216 L 237 221.5 L 234 219.5 L 232.5 216 Z " /><path fill="rgb(255,255,255)" stroke="rgb(255,255,255)" stroke-width="1" opacity="0.4666666666666667" d="M 303.5 220 L 308 225.5 L 305 223.5 L 303.5 220 Z " /><path fill="rgb(255,255,255)" stroke="rgb(255,255,255)" stroke-width="1" opacity="0.4666666666666667" d="M 324.5 222 L 331 230.5 L 328 228.5 L 324.5 222 Z " /><path fill="rgb(255,255,255)" stroke="rgb(255,255,255)" stroke-width="1" opacity="0.4666666666666667" d="M 237.5 223 L 242 228.5 L 239 226.5 L 237.5 223 Z " /><path fill="rgb(255,255,255)" stroke="rgb(255,255,255)" stroke-width="1" opacity="0.4666666666666667" d="M 308.5 227 L 309.5 229 L 308.5 227 Z " /><path fill="rgb(255,255,255)" stroke="rgb(255,255,255)" stroke-width="1" opacity="0.4666666666666667" d="M 242.5 230 L 247 235.5 L 244 233.5 L 242.5 230 Z " /><path fill="rgb(255,255,255)" stroke="rgb(255,255,255)" stroke-width="1" opacity="0.4666666666666667" d="M 310.5 230 L 315 235.5 L 312 233.5 L 310.5 230 Z " /><path fill="rgb(255,255,255)" stroke="rgb(255,255,255)" stroke-width="1" opacity="0.4666666666666667" d="M 331.5 232 L 336 237.5 L 333 235.5 L 331.5 232 Z " /><path fill="rgb(255,255,255)" stroke="rgb(255,255,255)" stroke-width="1" opacity="0.4666666666666667" d="M 247.5 237 L 249.5 240 L 247.5 237 Z " /><path fill="rgb(255,255,255)" stroke="rgb(255,255,255)" stroke-width="1" opacity="0.4666666666666667" d="M 315.5 237 L 320 242.5 L 317 240.5 L 315.5 237 Z " /><path fill="rgb(255,255,255)" stroke="rgb(255,255,255)" stroke-width="1" opacity="0.4666666666666667" d="M 336.5 239 L 343 247.5 L 340 245.5 L 336.5 239 Z " /><path fill="rgb(255,255,255)" stroke="rgb(255,255,255)" stroke-width="1" opacity="0.4666666666666667" d="M 250.5 241 L 255 246.5 L 252 244.5 L 250.5 241 Z " /><path fill="rgb(255,255,255)" stroke="rgb(255,255,255)" stroke-width="1" opacity="0.4666666666666667" d="M 320.5 244 L 325 249.5 L 322 247.5 L 320.5 244 Z " /><path fill="rgb(255,255,255)" stroke="rgb(255,255,255)" stroke-width="1" opacity="0.4666666666666667" d="M 255.5 248 L 260 253.5 L 257 251.5 L 255.5 248 Z " /><path fill="rgb(255,255,255)" stroke="rgb(255,255,255)" stroke-width="1" opacity="0.4666666666666667" d="M 343.5 249 L 348 254.5 L 345 252.5 L 343.5 249 Z " /><path fill="rgb(255,255,255)" stroke="rgb(255,255,255)" stroke-width="1" opacity="0.4666666666666667" d="M 325.5 251 L 326.5 253 L 325.5 251 Z " /><path fill="rgb(255,255,255)" stroke="rgb(255,255,255)" stroke-width="1" opacity="0.4666666666666667" d="M 327.5 254 L 332 259.5 L 329 257.5 L 327.5 254 Z " /><path fill="rgb(255,255,255)" stroke="rgb(255,255,255)" stroke-width="1" opacity="0.4666666666666667" d="M 260.5 255 L 265 260.5 L 262 258.5 L 260.5 255 Z " /><path fill="rgb(255,255,255)" stroke="rgb(255,255,255)" stroke-width="1" opacity="0.4666666666666667" d="M 348.5 256 L 349.5 258 L 348.5 256 Z " /><path fill="rgb(255,255,255)" stroke="rgb(255,255,255)" stroke-width="1" opacity="0.4666666666666667" d="M 377.5 256 L 378 300 L 401 300 L 401 357.5 L 400 357.5 L 395 350.5 L 398 352.5 L 399.5 355 L 400 301 L 377 301 L 377.5 256 Z " /><path fill="rgb(255,255,255)" stroke="rgb(255,255,255)" stroke-width="1" opacity="0.4666666666666667" d="M 448.5 256 L 449 420.5 L 448 420.5 L 448.5 256 Z " /><path fill="rgb(255,255,255)" stroke="rgb(255,255,255)" stroke-width="1" opacity="0.4666666666666667" d="M 350.5 259 L 355 264.5 L 352 262.5 L 350.5 259 Z " /><path fill="rgb(255,255,255)" stroke="rgb(255,255,255)" stroke-width="1" opacity="0.4666666666666667" d="M 332.5 261 L 337 266.5 L 334 264.5 L 332.5 261 Z " /><path fill="rgb(255,255,255)" stroke="rgb(255,255,255)" stroke-width="1" opacity="0.4666666666666667" d="M 265.5 262 L 267.5 265 L 265.5 262 Z " /><path fill="rgb(255,255,255)" stroke="rgb(255,255,255)" stroke-width="1" opacity="0.4666666666666667" d="M 268.5 266 L 273 271.5 L 270 269.5 L 268.5 266 Z " /><path fill="rgb(255,255,255)" stroke="rgb(255,255,255)" stroke-width="1" opacity="0.4666666666666667" d="M 246.5 267 L 248.5 270 L 246.5 267 Z " /><path fill="rgb(255,255,255)" stroke="rgb(255,255,255)" stroke-width="1" opacity="0.4666666666666667" d="M 337.5 268 L 344 276.5 L 341 274.5 L 337.5 268 Z " /><path fill="rgb(255,255,255)" stroke="rgb(255,255,255)" stroke-width="1" opacity="0.4666666666666667" d="M 249.5 271 L 277 306.5 L 273 303.5 L 249.5 271 Z " /><path fill="rgb(255,255,255)" stroke="rgb(255,255,255)" stroke-width="1" opacity="0.4666666666666667" d="M 273.5 273 L 278 278.5 L 275 276.5 L 273.5 273 Z " /><path fill="rgb(255,255,255)" stroke="rgb(255,255,255)" stroke-width="1" opacity="0.4666666666666667" d="M 344.5 278 L 349 283.5 L 346 281.5 L 344.5 278 Z " /><path fill="rgb(255,255,255)" stroke="rgb(255,255,255)" stroke-width="1" opacity="0.4666666666666667" d="M 278.5 280 L 283 285.5 L 280 283.5 L 278.5 280 Z " /><path fill="rgb(255,255,255)" stroke="rgb(255,255,255)" stroke-width="1" opacity="0.4666666666666667" d="M 349.5 285 L 354 290.5 L 351 288.5 L 349.5 285 Z " /><path fill="rgb(255,255,255)" stroke="rgb(255,255,255)" stroke-width="1" opacity="0.4666666666666667" d="M 283.5 287 L 291 296.5 L 288 294.5 L 283.5 287 Z " /><path fill="rgb(255,255,255)" stroke="rgb(255,255,255)" stroke-width="1" opacity="0.4666666666666667" d="M 354.5 292 L 355.5 294 L 354.5 292 Z " /><path fill="rgb(255,255,255)" stroke="rgb(255,255,255)" stroke-width="1" opacity="0.4666666666666667" d="M 356.5 295 L 361 300.5 L 358 298.5 L 356.5 295 Z " /><path fill="rgb(255,255,255)" stroke="rgb(255,255,255)" stroke-width="1" opacity="0.4666666666666667" d="M 291.5 298 L 296 303.5 L 293 301.5 L 291.5 298 Z " /><path fill="rgb(255,255,255)" stroke="rgb(255,255,255)" stroke-width="1" opacity="0.4666666666666667" d="M 361.5 302 L 366 307.5 L 363 305.5 L 361.5 302 Z " /><path fill="rgb(255,255,255)" stroke="rgb(255,255,255)" stroke-width="1" opacity="0.4666666666666667" d="M 296.5 305 L 301 310.5 L 298 308.5 L 296.5 305 Z " /><path fill="rgb(255,255,255)" stroke="rgb(255,255,255)" stroke-width="1" opacity="0.4666666666666667" d="M 277.5 308 L 279.5 311 L 277.5 308 Z " /><path fill="rgb(255,255,255)" stroke="rgb(255,255,255)" stroke-width="1" opacity="0.4666666666666667" d="M 366.5 309 L 371 314.5 L 368 312.5 L 366.5 309 Z " /><path fill="rgb(255,255,255)" stroke="rgb(255,255,255)" stroke-width="1" opacity="0.4666666666666667" d="M 280.5 312 L 282.5 315 L 280.5 312 Z " /><path fill="rgb(255,255,255)" stroke="rgb(255,255,255)" stroke-width="1" opacity="0.4666666666666667" d="M 301.5 312 L 306 317.5 L 303 315.5 L 301.5 312 Z " /><path fill="rgb(255,255,255)" stroke="rgb(255,255,255)" stroke-width="1" opacity="0.4666666666666667" d="M 283.5 316 L 285.5 319 L 283.5 316 Z " /><path fill="rgb(255,255,255)" stroke="rgb(255,255,255)" stroke-width="1" opacity="0.4666666666666667" d="M 371.5 316 L 372.5 318 L 371.5 316 Z " /><path fill="rgb(255,255,255)" stroke="rgb(255,255,255)" stroke-width="1" opacity="0.4666666666666667" d="M 306.5 319 L 308.5 322 L 306.5 319 Z " /><path fill="rgb(255,255,255)" stroke="rgb(255,255,255)" stroke-width="1" opacity="0.4666666666666667" d="M 373.5 319 L 378 324.5 L 375 322.5 L 373.5 319 Z " /><path fill="rgb(255,255,255)" stroke="rgb(255,255,255)" stroke-width="1" opacity="0.4666666666666667" d="M 286.5 320 L 288.5 323 L 286.5 320 Z " /><path fill="rgb(255,255,255)" stroke="rgb(255,255,255)" stroke-width="1" opacity="0.4666666666666667" d="M 309.5 323 L 314 328.5 L 311 326.5 L 309.5 323 Z " /><path fill="rgb(255,255,255)" stroke="rgb(255,255,255)" stroke-width="1" opacity="0.4666666666666667" d="M 289.5 324 L 291.5 327 L 289.5 324 Z " /><path fill="rgb(255,255,255)" stroke="rgb(255,255,255)" stroke-width="1" opacity="0.4666666666666667" d="M 378.5 326 L 383 331.5 L 380 329.5 L 378.5 326 Z " /><path fill="rgb(255,255,255)" stroke="rgb(255,255,255)" stroke-width="1" opacity="0.4666666666666667" d="M 292.5 328 L 293 420.5 L 292 420.5 L 292.5 328 Z " /><path fill="rgb(255,255,255)" stroke="rgb(255,255,255)" stroke-width="1" opacity="0.4666666666666667" d="M 314.5 330 L 319 335.5 L 316 333.5 L 314.5 330 Z " /><path fill="rgb(255,255,255)" stroke="rgb(255,255,255)" stroke-width="1" opacity="0.4666666666666667" d="M 383.5 333 L 390 341.5 L 387 339.5 L 383.5 333 Z " /><path fill="rgb(255,255,255)" stroke="rgb(255,255,255)" stroke-width="1" opacity="0.4666666666666667" d="M 319.5 337 L 324 342.5 L 321 340.5 L 319.5 337 Z " /><path fill="rgb(255,255,255)" stroke="rgb(255,255,255)" stroke-width="1" opacity="0.4666666666666667" d="M 390.5 343 L 395 348.5 L 392 346.5 L 390.5 343 Z " /><path fill="rgb(255,255,255)" stroke="rgb(255,255,255)" stroke-width="1" opacity="0.4666666666666667" d="M 324.5 344 L 326.5 347 L 324.5 344 Z " /><path fill="rgb(255,255,255)" stroke="rgb(255,255,255)" stroke-width="1" opacity="0.4666666666666667" d="M 327.5 348 L 332 353.5 L 329 351.5 L 327.5 348 Z " /><path fill="rgb(255,255,255)" stroke="rgb(255,255,255)" stroke-width="1" opacity="0.4666666666666667" d="M 332.5 355 L 337 360.5 L 334 358.5 L 332.5 355 Z " /><path fill="rgb(255,255,255)" stroke="rgb(255,255,255)" stroke-width="1" opacity="0.4666666666666667" d="M 211.5 356 L 217 365.5 L 215 364.5 L 211 357.5 L 211.5 356 Z " /><path fill="rgb(255,255,255)" stroke="rgb(255,255,255)" stroke-width="1" opacity="0.4666666666666667" d="M 337.5 362 L 342 367.5 L 339 365.5 L 337.5 362 Z " /><path fill="rgb(255,255,255)" stroke="rgb(255,255,255)" stroke-width="1" opacity="0.4666666666666667" d="M 218.5 366 L 219.5 368 L 218.5 366 Z " /><path fill="rgb(255,255,255)" stroke="rgb(255,255,255)" stroke-width="1" opacity="0.4666666666666667" d="M 163.5 369 L 164 371.5 L 163 371.5 L 163.5 369 Z " /><path fill="rgb(255,255,255)" stroke="rgb(255,255,255)" stroke-width="1" opacity="0.4666666666666667" d="M 342.5 369 L 350 378.5 L 347 376.5 L 342.5 369 Z " /><path fill="rgb(255,255,255)" stroke="rgb(255,255,255)" stroke-width="1" opacity="0.4666666666666667" d="M 228.5 370 L 241 370.5 L 228.5 371 L 228.5 370 Z " /><path fill="rgb(255,255,255)" stroke="rgb(255,255,255)" stroke-width="1" opacity="0.4666666666666667" d="M 166.5 378 L 169 382.5 L 167 381.5 L 166.5 378 Z " /><path fill="rgb(255,255,255)" stroke="rgb(255,255,255)" stroke-width="1" opacity="0.4666666666666667" d="M 350.5 380 L 355 385.5 L 352 383.5 L 350.5 380 Z " /><path fill="rgb(255,255,255)" stroke="rgb(255,255,255)" stroke-width="1" opacity="0.4666666666666667" d="M 169.5 384 L 176 392.5 L 172 389.5 L 169.5 384 Z " /><path fill="rgb(255,255,255)" stroke="rgb(255,255,255)" stroke-width="1" opacity="0.4666666666666667" d="M 355.5 387 L 360 392.5 L 357 390.5 L 355.5 387 Z " /><path fill="rgb(255,255,255)" stroke="rgb(255,255,255)" stroke-width="1" opacity="0.4666666666666667" d="M 176.5 394 L 187.5 406 L 176.5 394 Z " /><path fill="rgb(255,255,255)" stroke="rgb(255,255,255)" stroke-width="1" opacity="0.4666666666666667" d="M 360.5 394 L 365 399.5 L 362 397.5 L 360.5 394 Z " /><path fill="rgb(255,255,255)" stroke="rgb(255,255,255)" stroke-width="1" opacity="0.4666666666666667" d="M 365.5 401 L 367.5 404 L 365.5 401 Z " /><path fill="rgb(255,255,255)" stroke="rgb(255,255,255)" stroke-width="1" opacity="0.4666666666666667" d="M 368.5 405 L 373 410.5 L 370 408.5 L 368.5 405 Z " /><path fill="rgb(255,255,255)" stroke="rgb(255,255,255)" stroke-width="1" opacity="0.4666666666666667" d="M 189.5 406 L 203 415.5 L 201.5 415 Q 192.6 412.1 189.5 406 Z " /><path fill="rgb(255,255,255)" stroke="rgb(255,255,255)" stroke-width="1" opacity="0.4666666666666667" d="M 373.5 412 L 378 417.5 L 375 415.5 L 373.5 412 Z " /><path fill="rgb(255,255,255)" stroke="rgb(255,255,255)" stroke-width="1" opacity="0.4666666666666667" d="M 204.5 416 L 214 419.5 L 211.5 420 L 204.5 417 L 204.5 416 Z " /><path fill="rgb(255,255,255)" stroke="rgb(255,255,255)" stroke-width="1" opacity="0.4666666666666667" d="M 378.5 419 L 379.5 421 L 378.5 419 Z " /><path fill="rgb(255,255,255)" stroke="rgb(255,255,255)" stroke-width="1" opacity="0.4666666666666667" d="M 215.5 420 L 218 420.5 L 215.5 421 L 215.5 420 Z " /><path fill="rgb(255,255,255)" stroke="rgb(255,255,255)" stroke-width="1" opacity="0.4666666666666667" d="M 226.5 458 L 235 458.5 L 226.5 459 L 226.5 458 Z " /><path fill="rgb(255,255,255)" stroke="rgb(255,255,255)" stroke-width="1" opacity="0.4666666666666667" d="M 272.5 458 Q 278.5 456.5 280 459.5 Q 281.5 463.9 278.5 463 L 279 461.5 L 279 459 L 272.5 459 L 272.5 458 Z " /><path fill="rgb(255,255,255)" stroke="rgb(255,255,255)" stroke-width="1" opacity="0.4666666666666667" d="M 345.5 458 L 354 458.5 L 345.5 459 L 345.5 458 Z " /><path fill="rgb(255,255,255)" stroke="rgb(255,255,255)" stroke-width="1" opacity="0.4666666666666667" d="M 388.5 458 L 397 458.5 L 388.5 459 L 388.5 458 Z " /><path fill="rgb(255,255,255)" stroke="rgb(255,255,255)" stroke-width="1" opacity="0.4666666666666667" d="M 223.5 459 L 225 459.5 L 216.5 465 L 219.5 461 L 223.5 459 Z " /><path fill="rgb(255,255,255)" stroke="rgb(255,255,255)" stroke-width="1" opacity="0.4666666666666667" d="M 236.5 459 L 245 464.5 L 246 466.5 L 244 465.5 L 242.5 463 L 236.5 460 L 236.5 459 Z " /><path fill="rgb(255,255,255)" stroke="rgb(255,255,255)" stroke-width="1" opacity="0.4666666666666667" d="M 246.5 459 L 250 459.5 L 250 498.5 L 249 498.5 L 249 460.5 L 246.5 460 L 246.5 459 Z " /><path fill="rgb(255,255,255)" stroke="rgb(255,255,255)" stroke-width="1" opacity="0.4666666666666667" d="M 260 459 L 265 459 L 265 461.5 L 267.5 460 L 270.5 459 L 270.5 460 L 265 463.5 L 264.5 465 L 264 460 L 261 460.5 L 261 496.5 L 260 496.5 L 260 459 Z " /><path fill="rgb(255,255,255)" stroke="rgb(255,255,255)" stroke-width="1" opacity="0.4666666666666667" d="M 286 459 L 290 459.5 L 290 482.5 L 289 482.5 L 289 460.5 L 287 460 L 286.5 488 L 286 459 Z " /><path fill="rgb(255,255,255)" stroke="rgb(255,255,255)" stroke-width="1" opacity="0.4666666666666667" d="M 315.5 459 L 319 459.5 L 319 496.5 L 318 496.5 L 318 460.5 L 315.5 460 L 315.5 459 Z " /><path fill="rgb(255,255,255)" stroke="rgb(255,255,255)" stroke-width="1" opacity="0.4666666666666667" d="M 330 459 L 335 459 L 335 463.5 L 338 462.5 L 334.5 467 L 334 460 L 331 460.5 L 331 512 L 334 512.5 L 330 513 L 330 459 Z " /><path fill="rgb(255,255,255)" stroke="rgb(255,255,255)" stroke-width="1" opacity="0.4666666666666667" d="M 342.5 459 L 344 459.5 L 339.5 462 L 340.5 460 L 342.5 459 Z " /><path fill="rgb(255,255,255)" stroke="rgb(255,255,255)" stroke-width="1" opacity="0.4666666666666667" d="M 355.5 459 Q 361.3 460.3 364 464.5 L 360.5 462 L 355.5 460 L 355.5 459 Z " /><path fill="rgb(255,255,255)" stroke="rgb(255,255,255)" stroke-width="1" opacity="0.4666666666666667" d="M 384.5 459 L 387 459.5 L 378 464.5 L 374.5 471 L 374 469.5 L 379.5 462 L 384.5 459 Z " /><path fill="rgb(255,255,255)" stroke="rgb(255,255,255)" stroke-width="1" opacity="0.4666666666666667" d="M 398.5 459 L 407 464.5 L 410 470.5 L 409 470.5 L 404.5 463 L 398.5 460 L 398.5 459 Z " /><path fill="rgb(255,255,255)" stroke="rgb(255,255,255)" stroke-width="1" opacity="0.4666666666666667" d="M 229.5 461 L 232 461.5 L 229.5 462 L 229.5 461 Z " /><path fill="rgb(255,255,255)" stroke="rgb(255,255,255)" stroke-width="1" opacity="0.4666666666666667" d="M 348.5 461 L 351 461.5 L 348.5 462 L 348.5 461 Z " /><path fill="rgb(255,255,255)" stroke="rgb(255,255,255)" stroke-width="1" opacity="0.4666666666666667" d="M 390.5 461 L 394 461.5 L 390.5 462 L 390.5 461 Z " /><path fill="rgb(255,255,255)" stroke="rgb(255,255,255)" stroke-width="1" opacity="0.4666666666666667" d="M 225.5 462 L 228 462.5 Q 221.3 463.8 218.5 469 L 223.5 463 L 225.5 462 Z " /><path fill="rgb(255,255,255)" stroke="rgb(255,255,255)" stroke-width="1" opacity="0.4666666666666667" d="M 270.5 462 L 273 462.5 Q 267.9 462.9 266.5 467 L 270.5 462 Z " /><path fill="rgb(255,255,255)" stroke="rgb(255,255,255)" stroke-width="1" opacity="0.4666666666666667" d="M 352.5 462 Q 360.4 463.1 363 469.5 L 362.5 471 L 356.5 464 L 352.5 463 L 352.5 462 Z " /><path fill="rgb(255,255,255)" stroke="rgb(255,255,255)" stroke-width="1" opacity="0.4666666666666667" d="M 395.5 462 Q 403.4 463.1 406 469.5 L 405.5 471 L 399.5 464 L 395.5 463 L 395.5 462 Z " /><path fill="rgb(255,255,255)" stroke="rgb(255,255,255)" stroke-width="1" opacity="0.4666666666666667" d="M 342.5 463 L 341.5 465 L 337 468.5 L 334.5 475 L 334 472.5 L 340.5 464 L 342.5 463 Z " /><path fill="rgb(255,255,255)" stroke="rgb(255,255,255)" stroke-width="1" opacity="0.4666666666666667" d="M 384.5 463 L 386 463.5 L 379.5 469 L 384.5 463 Z " /><path fill="rgb(255,255,255)" stroke="rgb(255,255,255)" stroke-width="1" opacity="0.4666666666666667" d="M 239.5 464 Q 244.9 467.1 246 474.5 L 245 474.5 Q 243.4 467.1 239.5 464 Z " /><path fill="rgb(255,255,255)" stroke="rgb(255,255,255)" stroke-width="1" opacity="0.4666666666666667" d="M 215.5 466 L 215 467.5 L 213.5 471 L 213 469.5 L 215.5 466 Z " /><path fill="rgb(255,255,255)" stroke="rgb(255,255,255)" stroke-width="1" opacity="0.4666666666666667" d="M 364.5 466 L 367 470.5 L 366 470.5 L 364.5 466 Z " /><path fill="rgb(255,255,255)" stroke="rgb(255,255,255)" stroke-width="1" opacity="0.4666666666666667" d="M 265.5 468 L 266 469.5 L 265 470.5 L 264.5 497 L 264 470.5 L 265.5 468 Z " /><path fill="rgb(255,255,255)" stroke="rgb(255,255,255)" stroke-width="1" opacity="0.4666666666666667" d="M 217.5 470 L 218 471.5 L 216.5 475 L 216 472.5 L 217.5 470 Z " /><path fill="rgb(255,255,255)" stroke="rgb(255,255,255)" stroke-width="1" opacity="0.4666666666666667" d="M 212.5 472 L 213 483.5 L 212 483.5 L 212.5 472 Z " /><path fill="rgb(255,255,255)" stroke="rgb(255,255,255)" stroke-width="1" opacity="0.4666666666666667" d="M 363.5 472 L 364 474.5 L 363 474.5 L 363.5 472 Z " /><path fill="rgb(255,255,255)" stroke="rgb(255,255,255)" stroke-width="1" opacity="0.4666666666666667" d="M 367.5 472 L 368 483.5 L 367 483.5 L 367.5 472 Z " /><path fill="rgb(255,255,255)" stroke="rgb(255,255,255)" stroke-width="1" opacity="0.4666666666666667" d="M 373.5 472 L 374 475.5 L 373 475.5 L 373.5 472 Z " /><path fill="rgb(255,255,255)" stroke="rgb(255,255,255)" stroke-width="1" opacity="0.4666666666666667" d="M 410.5 472 L 411 475.5 L 410 475.5 L 410.5 472 Z " /><path fill="rgb(255,255,255)" stroke="rgb(255,255,255)" stroke-width="1" opacity="0.4666666666666667" d="M 407.5 475 L 408 480.5 L 407 480.5 L 407.5 475 Z " /><path fill="rgb(255,255,255)" stroke="rgb(255,255,255)" stroke-width="1" opacity="0.4666666666666667" d="M 364.5 476 L 365 479.5 L 364 479.5 L 364.5 476 Z " /><path fill="rgb(255,255,255)" stroke="rgb(255,255,255)" stroke-width="1" opacity="0.4666666666666667" d="M 376.5 476 L 377 480.5 L 376 480.5 L 376.5 476 Z " /><path fill="rgb(255,255,255)" stroke="rgb(255,255,255)" stroke-width="1" opacity="0.4666666666666667" d="M 373.5 480 L 374 483.5 L 373 483.5 L 373.5 480 Z " /><path fill="rgb(255,255,255)" stroke="rgb(255,255,255)" stroke-width="1" opacity="0.4666666666666667" d="M 410.5 480 L 411 484.5 L 409.5 487 L 409 485.5 L 410.5 480 Z " /><path fill="rgb(255,255,255)" stroke="rgb(255,255,255)" stroke-width="1" opacity="0.4666666666666667" d="M 216.5 481 L 217 483.5 L 216 483.5 L 216.5 481 Z " /><path fill="rgb(255,255,255)" stroke="rgb(255,255,255)" stroke-width="1" opacity="0.4666666666666667" d="M 245.5 481 L 246 483.5 L 245 483.5 L 245.5 481 Z " /><path fill="rgb(255,255,255)" stroke="rgb(255,255,255)" stroke-width="1" opacity="0.4666666666666667" d="M 334.5 481 Q 336 488.5 341.5 492 L 345 493.5 L 343.5 494 L 336 487.5 Q 333 485 334.5 481 Z " /><path fill="rgb(255,255,255)" stroke="rgb(255,255,255)" stroke-width="1" opacity="0.4666666666666667" d="M 314.5 482 L 315 484.5 L 314 484.5 L 314.5 482 Z " /><path fill="rgb(255,255,255)" stroke="rgb(255,255,255)" stroke-width="1" opacity="0.4666666666666667" d="M 406.5 482 L 407 484.5 L 401.5 492 L 399.5 493 L 400.5 491 L 403 489.5 L 406.5 482 Z " /><path fill="rgb(255,255,255)" stroke="rgb(255,255,255)" stroke-width="1" opacity="0.4666666666666667" d="M 213.5 485 Q 215.3 491.3 220 494.5 L 215 490.5 L 213.5 485 Z " /><path fill="rgb(255,255,255)" stroke="rgb(255,255,255)" stroke-width="1" opacity="0.4666666666666667" d="M 217.5 485 L 221.5 491 L 226 493.5 L 224.5 494 L 219 489.5 L 217.5 485 Z " /><path fill="rgb(255,255,255)" stroke="rgb(255,255,255)" stroke-width="1" opacity="0.4666666666666667" d="M 290.5 485 Q 291.3 490.3 295 492.5 L 291 489.5 L 290.5 485 Z " /><path fill="rgb(255,255,255)" stroke="rgb(255,255,255)" stroke-width="1" opacity="0.4666666666666667" d="M 362.5 485 L 363 486.5 L 358.5 492 L 354.5 494 L 354.5 493 L 360 489.5 L 362.5 485 Z " /><path fill="rgb(255,255,255)" stroke="rgb(255,255,255)" stroke-width="1" opacity="0.4666666666666667" d="M 366.5 485 L 367 486.5 L 360.5 495 L 364 490.5 L 366.5 485 Z " /><path fill="rgb(255,255,255)" stroke="rgb(255,255,255)" stroke-width="1" opacity="0.4666666666666667" d="M 374.5 485 L 380.5 494 L 386 496.5 L 384.5 497 L 376 490.5 L 374.5 485 Z " /><path fill="rgb(255,255,255)" stroke="rgb(255,255,255)" stroke-width="1" opacity="0.4666666666666667" d="M 378.5 485 L 384.5 492 L 388 493.5 L 386.5 494 L 378 486.5 L 378.5 485 Z " /><path fill="rgb(255,255,255)" stroke="rgb(255,255,255)" stroke-width="1" opacity="0.4666666666666667" d="M 313.5 486 L 314 487.5 Q 311.6 492.6 305.5 494 L 305.5 493 L 313 487.5 L 313.5 486 Z " /><path fill="rgb(255,255,255)" stroke="rgb(255,255,255)" stroke-width="1" opacity="0.4666666666666667" d="M 243.5 487 L 238.5 493 L 235.5 494 L 235.5 493 Q 241.3 491.8 243.5 487 Z " /><path fill="rgb(255,255,255)" stroke="rgb(255,255,255)" stroke-width="1" opacity="0.4666666666666667" d="M 408.5 488 L 408 489.5 L 403.5 495 L 401.5 496 L 402.5 494 L 407 490.5 L 408.5 488 Z " /><path fill="rgb(255,255,255)" stroke="rgb(255,255,255)" stroke-width="1" opacity="0.4666666666666667" d="M 287.5 489 L 291.5 495 L 295 496.5 L 293.5 497 L 288 492.5 L 287.5 489 Z " /><path fill="rgb(255,255,255)" stroke="rgb(255,255,255)" stroke-width="1" opacity="0.4666666666666667" d="M 334.5 489 L 338.5 494 L 341 495.5 L 339.5 495 L 334 490.5 L 334.5 489 Z " /><path fill="rgb(255,255,255)" stroke="rgb(255,255,255)" stroke-width="1" opacity="0.4666666666666667" d="M 314.5 490 L 315 491.5 L 307.5 497 L 307.5 496 L 314 491.5 L 314.5 490 Z " /><path fill="rgb(255,255,255)" stroke="rgb(255,255,255)" stroke-width="1" opacity="0.4666666666666667" d="M 244.5 491 L 241.5 495 L 237.5 497 L 237.5 496 L 244.5 491 Z " /><path fill="rgb(255,255,255)" stroke="rgb(255,255,255)" stroke-width="1" opacity="0.4666666666666667" d="M 227.5 494 L 234 494.5 L 227.5 495 L 227.5 494 Z " /><path fill="rgb(255,255,255)" stroke="rgb(255,255,255)" stroke-width="1" opacity="0.4666666666666667" d="M 299.5 494 L 304 494.5 L 299.5 495 L 299.5 494 Z " /><path fill="rgb(255,255,255)" stroke="rgb(255,255,255)" stroke-width="1" opacity="0.4666666666666667" d="M 346.5 494 L 353 494.5 L 346.5 495 L 346.5 494 Z " /><path fill="rgb(255,255,255)" stroke="rgb(255,255,255)" stroke-width="1" opacity="0.4666666666666667" d="M 389.5 494 L 395 494.5 L 389.5 495 L 389.5 494 Z " /><path fill="rgb(255,255,255)" stroke="rgb(255,255,255)" stroke-width="1" opacity="0.4666666666666667" d="M 221.5 495 L 224 496.5 L 222.5 497 L 221.5 495 Z " /><path fill="rgb(255,255,255)" stroke="rgb(255,255,255)" stroke-width="1" opacity="0.4666666666666667" d="M 358.5 495 L 357.5 497 L 356 496.5 L 358.5 495 Z " /><path fill="rgb(255,255,255)" stroke="rgb(255,255,255)" stroke-width="1" opacity="0.4666666666666667" d="M 398.5 496 L 400 496.5 Q 396.4 499.9 387.5 498 L 387.5 497 L 397.5 497 L 398.5 496 Z " /><path fill="rgb(255,255,255)" stroke="rgb(255,255,255)" stroke-width="1" opacity="0.4666666666666667" d="M 225.5 497 L 236 497.5 L 225.5 498 L 225.5 497 Z " /><path fill="rgb(255,255,255)" stroke="rgb(255,255,255)" stroke-width="1" opacity="0.4666666666666667" d="M 245.5 497 L 246 500.5 L 240.5 508 L 234.5 510 L 234.5 509 Q 240.4 508.4 243 504.5 L 245.5 497 Z " /><path fill="rgb(255,255,255)" stroke="rgb(255,255,255)" stroke-width="1" opacity="0.4666666666666667" d="M 296.5 497 L 306 497.5 L 296.5 498 L 296.5 497 Z " /><path fill="rgb(255,255,255)" stroke="rgb(255,255,255)" stroke-width="1" opacity="0.4666666666666667" d="M 344.5 497 L 355 497.5 L 344.5 498 L 344.5 497 Z " /><path fill="rgb(255,255,255)" stroke="rgb(255,255,255)" stroke-width="1" opacity="0.4666666666666667" d="M 248.5 500 L 249 502.5 L 246.5 506 L 247 504.5 L 248.5 500 Z " /><path fill="rgb(255,255,255)" stroke="rgb(255,255,255)" stroke-width="1" opacity="0.4666666666666667" d="M 216.5 504 L 226 509.5 L 223.5 510 L 216.5 505 L 215 507.5 L 216.5 510 L 214 506.5 L 216.5 504 Z " /><path fill="rgb(255,255,255)" stroke="rgb(255,255,255)" stroke-width="1" opacity="0.4666666666666667" d="M 245.5 507 L 243.5 510 L 239.5 512 L 239.5 511 L 245.5 507 Z " /><path fill="rgb(255,255,255)" stroke="rgb(255,255,255)" stroke-width="1" opacity="0.4666666666666667" d="M 218.5 510 L 221 511.5 L 219.5 512 L 218.5 510 Z " /><path fill="rgb(255,255,255)" stroke="rgb(255,255,255)" stroke-width="1" opacity="0.4666666666666667" d="M 227.5 510 L 233 510.5 L 227.5 511 L 227.5 510 Z " /><path fill="rgb(255,255,255)" stroke="rgb(255,255,255)" stroke-width="1" opacity="0.4666666666666667" d="M 225.5 513 L 235 513.5 L 225.5 514 L 225.5 513 Z " /><path fill="rgb(255,255,255)" stroke="rgb(255,255,255)" stroke-width="1" opacity="1" d="M 163 116 L 229.5 116 L 230 117.5 L 400.5 358 L 401 300 L 378 300 L 378 256 L 448 256 L 448 421 L 380.5 421 L 378 418.5 L 210.5 185 L 210 354.5 L 216.5 366 L 223.5 370 L 240.5 371 L 243.5 370 L 245 370.5 L 245.5 266 L 292 327.5 L 292 421 L 218.5 421 Q 191 413.5 176 393.5 Q 167.1 383.4 163 368.5 L 163 116 Z " /><path fill="rgb(255,255,255)" stroke="rgb(255,255,255)" stroke-width="1" opacity="1" d="M 312 116 L 377.5 116 L 390.5 119 Q 418.8 129.2 436 150.5 Q 443.2 159.3 447 171.5 L 448 176.5 L 448 210 L 401.5 210 L 401 209.5 L 401 198.5 L 399 187.5 L 396 181.5 L 387.5 172 L 373.5 167 L 360.5 167 L 359 168.5 L 358.5 270 L 312 204.5 L 312 116 Z " /><path fill="rgb(255,255,255)" stroke="rgb(255,255,255)" stroke-width="1" opacity="1" d="M 225.5 459 L 235.5 459 L 244 464.5 L 245.5 467 L 246 460 L 249 460.5 L 249 499.5 L 243.5 509 Q 237.8 514.8 224.5 513 L 215 507.5 L 216.5 505 Q 221 511.5 232.5 511 Q 240.3 509.8 244 504.5 Q 247.8 499.8 246 489.5 L 245 489.5 L 241.5 494 Q 236.7 499.3 224.5 497 L 216 490.5 Q 210.8 484.7 213 471.5 L 219.5 462 L 225.5 459 Z M 230 461 L 224 463 L 218 469 L 215 478 L 217 487 L 219 490 L 228 495 Q 235 496 239 493 L 244 488 L 247 479 L 244 469 Q 240 462 230 461 Z " /><path fill="rgb(255,255,255)" stroke="rgb(255,255,255)" stroke-width="1" opacity="1" d="M 271.5 459 L 279 459 L 279 462 L 274.5 461 L 270.5 462 L 266 466.5 L 264 470.5 L 264 497 L 261 496.5 L 261 460 Q 265.9 458.2 264 464.5 L 265 464.5 L 267.5 461 L 271.5 459 Z " /><path fill="rgb(255,255,255)" stroke="rgb(255,255,255)" stroke-width="1" opacity="1" d="M 344.5 459 L 354.5 459 L 364 465.5 Q 369.2 471.3 367 484.5 Q 364.8 491.3 359.5 495 Q 354.5 499 343.5 497 L 335 490.5 L 334.5 489 L 334 512 L 331 511.5 L 331 460 L 334 460 L 334 466.5 L 336 465.5 L 338.5 462 L 344.5 459 Z M 349 461 L 341 464 L 336 469 L 333 479 L 336 488 Q 339 493 347 495 Q 355 496 359 492 L 363 487 L 365 480 L 363 470 Q 359 462 349 461 Z " /><path fill="rgb(255,255,255)" stroke="rgb(255,255,255)" stroke-width="1" opacity="1" d="M 387.5 459 L 397.5 459 L 406 464.5 Q 411 469.5 411 479.5 L 409 487.5 L 403.5 494 Q 398.3 498.8 386.5 497 L 377 490.5 Q 373 485.5 373 476.5 L 374 471.5 L 379.5 463 L 387.5 459 Z M 391 461 L 385 463 Q 378 467 376 477 L 378 487 Q 382 493 390 495 L 395 495 L 402 492 Q 407 488 408 481 L 408 476 L 406 470 Q 402 461 391 461 Z " /><path fill="rgb(255,255,255)" stroke="rgb(255,255,255)" stroke-width="1" opacity="1" d="M 287 460 L 289 460.5 L 289 482.5 L 291 489.5 L 294.5 493 Q 297.4 495.6 303.5 495 Q 310.7 493.2 314 487.5 L 315 484.5 L 315 460 L 318 460.5 L 318 497 L 315 497 L 315 490.5 L 314 490.5 L 310.5 495 Q 305.8 498.8 295.5 497 L 289 492.5 L 287 488.5 L 287 460 Z " /></svg>